<svg width="195" height="195" viewBox="0 0 195 195" fill="none" xmlns="http://www.w3.org/2000/svg">
<rect width="195" height="195" rx="10" fill="#FBD50A"/>
<path d="M147.937 161.243C156.295 161.243 163.069 154.468 163.069 146.111C163.069 137.754 156.295 130.979 147.937 130.979C139.58 130.979 132.805 137.754 132.805 146.111C132.805 154.468 139.58 161.243 147.937 161.243Z" stroke="#F2F2F2" stroke-width="5" stroke-miterlimit="10"/>
<path d="M42 113.374C42 144.946 65.9704 178.452 95.5391 178.452C125.108 178.452 149.079 144.946 149.079 113.374" fill="#F2F2F2"/>
<path d="M49.5166 117.942C49.5166 145.081 70.1216 173.883 95.5391 173.883C120.957 173.883 141.562 145.081 141.562 117.942" fill="#57CA44"/>
<path d="M58.2734 123.264C58.2734 145.24 74.9579 168.562 95.5395 168.562C116.121 168.562 132.806 145.24 132.806 123.264" fill="#4B3B2E"/>
<path d="M60.2641 179.441H128.309" stroke="#F2F2F2" stroke-width="5" stroke-miterlimit="10"/>
<path d="M78.5603 104.352C78.5603 104.352 78.4207 104.417 78.1564 104.501C77.8925 104.584 77.5033 104.687 77.0095 104.749C76.5126 104.816 75.9117 104.843 75.217 104.781C74.5267 104.711 73.7367 104.558 72.8924 104.21C72.0506 103.862 71.1363 103.327 70.2818 102.455C69.8506 102.029 69.449 101.502 69.0942 100.91C68.9268 100.605 68.7476 100.296 68.6175 99.9542C68.4727 99.6187 68.3465 99.269 68.2515 98.9038C67.831 97.444 67.8516 95.8465 68.1526 94.4477L68.208 94.1826L68.2381 94.0505L68.246 94.0176L68.2499 94.001C68.1775 94.2356 68.2309 94.0604 68.2155 94.1102L68.2238 94.0703L68.2899 93.7486C68.3322 93.5334 68.3785 93.3186 68.4323 93.1058C68.443 93.0575 68.4632 92.9871 68.4655 92.957L68.4766 92.8585C68.4837 92.7928 68.4924 92.7279 68.5063 92.6643C68.528 92.5337 68.5648 92.4146 68.5815 92.2758C68.6701 91.7856 68.7583 91.295 68.8453 90.8124C68.896 90.4053 68.9917 90.0188 69.0123 89.5401C69.0234 89.0579 69.0214 88.4894 68.928 87.8548C68.9098 87.6934 68.8916 87.5344 68.8738 87.3777C68.8465 87.2127 68.8141 87.0521 68.7923 86.8852C68.7496 86.5568 68.6895 86.2217 68.6317 85.8902C68.532 85.2295 68.4165 84.5693 68.3441 83.9691C68.2578 83.3646 68.2048 82.8116 68.172 82.3368C68.0968 81.3953 68.136 80.7738 68.136 80.7738C68.136 80.7738 68.7508 80.8197 69.6836 81.0464C70.1536 81.1567 70.6952 81.3272 71.2997 81.5456C71.8927 81.7881 72.5589 82.0564 73.235 82.467C73.5764 82.6624 73.9246 82.882 74.2735 83.1498C74.4519 83.2776 74.6232 83.4165 74.8028 83.5561C74.9816 83.7041 75.1514 83.8718 75.329 84.0372C76.0351 84.6903 76.7239 85.571 77.3051 86.6387C77.885 87.7187 78.2866 89.0262 78.4499 90.3491C78.6003 91.6732 78.5077 92.9538 78.2965 94.1189C78.2426 94.4152 78.158 94.7214 78.0868 95.0209C78.0508 95.1716 78.0092 95.3212 77.9669 95.4695L77.9032 95.6922C77.8815 95.7694 77.866 95.803 77.847 95.8604C77.777 96.0685 77.6999 96.2742 77.6188 96.4783L77.5005 96.7845L77.4858 96.8229L77.4455 96.9515L77.4439 96.9546L77.4407 96.961C77.4368 96.9693 77.4324 96.9776 77.4269 96.9859L77.3953 97.0346C77.2327 97.3028 77.0705 97.4444 76.9174 97.6201C76.7579 97.7957 76.5969 98.0722 76.5601 98.4928C76.5095 98.9078 76.5787 99.4335 76.7176 99.9704C76.8556 100.507 77.0507 101.068 77.2651 101.578C77.4767 102.093 77.6999 102.568 77.8925 102.981C78.3174 103.854 78.5603 104.352 78.5603 104.352Z" fill="#F2F2F2"/>
<path d="M107.697 104.352C107.697 104.352 107.94 103.853 108.364 102.981C108.557 102.568 108.78 102.093 108.992 101.578C109.206 101.068 109.401 100.508 109.539 99.9704C109.678 99.4335 109.747 98.9078 109.697 98.4928C109.66 98.0726 109.499 97.7961 109.34 97.6201C109.186 97.4444 109.025 97.3028 108.862 97.0346L108.83 96.9859C108.825 96.978 108.82 96.9697 108.816 96.961L108.813 96.9546L108.811 96.9515L108.771 96.8229L108.756 96.7845L108.638 96.4783C108.557 96.2742 108.48 96.0689 108.41 95.8604C108.391 95.803 108.375 95.769 108.354 95.6922L108.29 95.4695C108.247 95.3208 108.206 95.1716 108.17 95.0209C108.099 94.7214 108.014 94.4152 107.96 94.1189C107.75 92.9534 107.657 91.6732 107.807 90.3491C107.97 89.0262 108.372 87.7183 108.952 86.6387C109.533 85.571 110.222 84.6899 110.928 84.0372C111.106 83.8718 111.275 83.7041 111.454 83.5561C111.634 83.4165 111.805 83.2776 111.983 83.1498C112.332 82.882 112.681 82.6628 113.022 82.467C113.698 82.0564 114.364 81.7881 114.957 81.5456C115.562 81.3272 116.103 81.1563 116.573 81.0464C117.506 80.8197 118.121 80.7738 118.121 80.7738C118.121 80.7738 118.16 81.3953 118.085 82.3368C118.052 82.8116 117.999 83.3646 117.913 83.9691C117.84 84.5697 117.725 85.2295 117.625 85.8902C117.567 86.2221 117.507 86.5568 117.465 86.8852C117.443 87.0521 117.41 87.2127 117.383 87.3777C117.365 87.5344 117.347 87.6938 117.329 87.8548C117.236 88.4894 117.234 89.0579 117.245 89.5401C117.265 90.0188 117.361 90.4053 117.412 90.8124C117.499 91.295 117.587 91.7852 117.675 92.2758C117.692 92.4146 117.729 92.5333 117.751 92.6643C117.765 92.7279 117.773 92.7928 117.78 92.8585L117.791 92.957C117.794 92.9871 117.814 93.0575 117.825 93.1058C117.878 93.3186 117.925 93.5334 117.967 93.7486L118.033 94.0703L118.041 94.1102C118.026 94.0604 118.079 94.236 118.007 94.001L118.011 94.0176L118.019 94.0505L118.049 94.1826L118.104 94.4477C118.405 95.8465 118.426 97.444 118.005 98.9038C117.91 99.269 117.784 99.6187 117.639 99.9542C117.509 100.296 117.33 100.605 117.163 100.91C116.808 101.502 116.406 102.029 115.975 102.455C115.121 103.327 114.206 103.862 113.365 104.21C112.52 104.558 111.73 104.712 111.04 104.781C110.345 104.843 109.744 104.816 109.247 104.749C108.754 104.687 108.364 104.584 108.101 104.501C107.837 104.417 107.697 104.352 107.697 104.352Z" fill="#F2F2F2"/>
<path d="M95.2899 101.704C95.2899 101.704 95.0731 101.666 94.683 101.554C94.2938 101.44 93.7292 101.251 93.0472 100.936C92.36 100.626 91.5549 100.19 90.6795 99.5819C89.8115 98.9695 88.866 98.187 87.9588 97.143C87.0541 96.1017 86.1651 94.7966 85.5369 93.1398C85.2093 92.3213 84.9807 91.4023 84.8339 90.4318C84.7837 89.9413 84.7113 89.4412 84.7239 88.9269C84.7235 88.6706 84.7196 88.4107 84.7291 88.1499C84.7461 87.89 84.7714 87.6289 84.7983 87.3658C85.0076 85.2481 85.8475 83.1704 86.9734 81.4341L87.1846 81.1053L87.2922 80.9419L87.3195 80.9012L87.3334 80.881C87.1874 81.0752 87.2986 80.9265 87.2685 80.9661L87.3077 80.9067L87.621 80.4312C87.8287 80.1127 88.0403 79.7958 88.2587 79.4825C88.3082 79.4077 88.377 79.3168 88.411 79.255L88.521 79.064C88.5938 78.9366 88.6682 78.81 88.7469 78.6862C88.8976 78.4326 89.0677 78.2003 89.209 77.9333C89.4938 77.406 89.8309 76.8766 90.0579 76.373L90.2502 75.9928C90.3187 75.8662 90.3863 75.7424 90.4298 75.6186C90.5335 75.3713 90.6336 75.1229 90.7511 74.8796C91.1134 73.8981 91.4394 72.9399 91.621 71.8852C91.7899 70.8254 91.9209 69.6999 91.9308 68.5237C91.9403 68.2286 91.9498 67.9374 91.9589 67.6506C91.9553 67.3547 91.9454 67.0627 91.949 66.7708C91.949 66.4768 91.9494 66.1876 91.9494 65.904C91.9418 65.614 91.9284 65.3304 91.9268 65.0471C91.9209 63.9224 91.8797 62.8424 91.8884 61.8767C91.8742 60.9066 91.8952 60.0422 91.9229 59.3187C91.9664 57.8755 92.0965 57 92.0965 57C92.0965 57 92.7766 57.555 93.7818 58.6157C94.2886 59.1446 94.8567 59.814 95.4893 60.5961C96.0914 61.4012 96.7837 62.2984 97.4167 63.3828C97.5824 63.6498 97.7395 63.9271 97.9057 64.2092C98.0702 64.494 98.2123 64.8022 98.3701 65.1092C98.5276 65.4174 98.6751 65.7359 98.831 66.0595C98.9782 66.3918 99.1067 66.7427 99.246 67.0956C99.8066 68.496 100.216 70.1481 100.407 71.9588C100.587 73.7826 100.417 75.776 99.947 77.6916C99.8165 78.1604 99.6673 78.6272 99.5213 79.0976C99.3856 79.5779 99.1748 79.9925 98.9944 80.4415C98.6415 81.3534 98.1711 82.1327 97.7292 82.954C97.4998 83.3571 97.2213 83.7492 96.9669 84.1448C96.8379 84.3426 96.7042 84.5376 96.5701 84.7311L96.3691 85.0215C96.3007 85.1208 96.2493 85.1789 96.1887 85.26C95.9569 85.563 95.7191 85.8613 95.479 86.1561L95.1214 86.5992L94.9706 86.7938L94.9145 86.8618L94.7985 86.9952C94.1854 87.7136 93.7047 88.3739 93.3898 89.0891C93.2098 89.4448 93.1026 89.8254 92.9815 90.2297C92.898 90.6387 92.8051 91.0723 92.7873 91.5352C92.718 92.4562 92.815 93.4658 92.9938 94.4477C93.173 95.4304 93.4202 96.3945 93.6916 97.2609C93.9591 98.1316 94.2392 98.9117 94.4773 99.5716C94.9635 100.884 95.2899 101.704 95.2899 101.704Z" fill="#F2F2F2"/>
<path d="M64.0238 16.68C63.9171 18.04 63.8371 19.3467 63.7838 20.6C63.7571 21.8533 63.7438 22.8133 63.7438 23.48C63.7438 24.0667 63.7571 24.6267 63.7838 25.16C63.8104 25.6933 63.8371 26.1467 63.8638 26.52H62.9438C62.5171 24.28 61.9704 22.5067 61.3038 21.2C60.6638 19.8933 59.8904 18.9733 58.9838 18.44C58.0771 17.88 57.0104 17.6 55.7838 17.6H54.8638V40.44C54.8638 41.5067 54.9704 42.3067 55.1838 42.84C55.4238 43.3733 55.8504 43.7333 56.4638 43.92C57.0771 44.08 57.9704 44.1733 59.1438 44.2V45C58.3171 44.9733 57.2104 44.9467 55.8238 44.92C54.4638 44.8933 53.0371 44.88 51.5438 44.88C50.0771 44.88 48.6904 44.8933 47.3838 44.92C46.0771 44.9467 45.0238 44.9733 44.2237 45V44.2C45.4238 44.1733 46.3304 44.08 46.9438 43.92C47.5571 43.7333 47.9704 43.3733 48.1838 42.84C48.3971 42.3067 48.5038 41.5067 48.5038 40.44V17.6H47.6238C46.3971 17.6 45.3304 17.88 44.4238 18.44C43.5171 18.9733 42.7438 19.8933 42.1038 21.2C41.4638 22.48 40.9038 24.2533 40.4238 26.52H39.5038C39.5571 26.1467 39.5838 25.6933 39.5838 25.16C39.6104 24.6267 39.6238 24.0667 39.6238 23.48C39.6238 22.8133 39.5971 21.8533 39.5438 20.6C39.5171 19.3467 39.4504 18.04 39.3438 16.68C40.5704 16.7067 41.9038 16.7333 43.3438 16.76C44.8104 16.7867 46.2771 16.8 47.7438 16.8C49.2104 16.8 50.5304 16.8 51.7038 16.8C52.9038 16.8 54.2238 16.8 55.6638 16.8C57.1304 16.8 58.5971 16.7867 60.0638 16.76C61.5304 16.7333 62.8504 16.7067 64.0238 16.68ZM91.7156 16.6C92.7556 16.6 93.5956 16.68 94.2356 16.84C94.8756 16.9733 95.4223 17.1733 95.8756 17.44C96.3023 17.6267 96.689 17.8667 97.0356 18.16C97.409 18.4533 97.7156 18.8133 97.9556 19.24C98.1956 19.6667 98.3156 20.1467 98.3156 20.68C98.3156 21.48 98.009 22.12 97.3956 22.6C96.7823 23.08 96.0623 23.32 95.2356 23.32C94.4356 23.32 93.7423 23.12 93.1556 22.72C92.5956 22.32 92.3156 21.6933 92.3156 20.84C92.3156 20.1733 92.5556 19.5733 93.0356 19.04C93.5156 18.48 94.129 18.1333 94.8756 18C94.689 17.7867 94.3423 17.6133 93.8356 17.48C93.3556 17.3467 92.8223 17.28 92.2356 17.28C90.849 17.28 89.6623 17.72 88.6756 18.6C87.7156 19.4533 87.2356 20.76 87.2356 22.52C87.2356 23.1333 87.3423 23.7867 87.5556 24.48C87.769 25.1733 88.1823 25.88 88.7956 26.6C89.249 26.4933 89.6623 26.4133 90.0356 26.36C90.4356 26.3067 90.769 26.28 91.0356 26.28C91.5156 26.28 91.8756 26.3867 92.1156 26.6C92.3823 26.7867 92.5156 27.04 92.5156 27.36C92.5156 27.6 92.409 27.8 92.1956 27.96C91.9823 28.12 91.7156 28.2 91.3956 28.2C90.9423 28.2 90.4756 28.08 89.9956 27.84C89.5156 27.5733 89.129 27.3467 88.8356 27.16C87.5823 27.8 86.5556 28.6267 85.7556 29.64C84.9823 30.6267 84.5956 31.96 84.5956 33.64C84.5956 35.4 85.0756 36.8533 86.0356 38C86.9956 39.12 88.3423 39.9733 90.0756 40.56C91.8356 41.12 93.9023 41.4 96.2756 41.4C97.609 41.4 98.929 41.2533 100.236 40.96C101.542 40.6667 102.716 40.2267 103.756 39.64C104.822 39.0533 105.676 38.3333 106.316 37.48C106.956 36.6 107.276 35.5867 107.276 34.44C107.276 34.0133 107.209 33.48 107.076 32.84C106.969 32.1733 106.689 31.52 106.236 30.88C105.782 30.2133 105.036 29.6667 103.996 29.24L104.276 28.88C105.716 29.3333 106.809 30.1867 107.556 31.44C108.302 32.6933 108.676 34.1333 108.676 35.76C108.676 37.6267 108.102 39.3067 106.956 40.8C105.809 42.2667 104.196 43.4267 102.116 44.28C100.062 45.1333 97.649 45.56 94.8756 45.56C92.6623 45.56 90.649 45.3333 88.8356 44.88C87.049 44.4267 85.5023 43.7733 84.1956 42.92C82.9156 42.04 81.9156 40.9867 81.1956 39.76C80.5023 38.5333 80.1556 37.1467 80.1556 35.6C80.1556 34.1067 80.4623 32.84 81.0756 31.8C81.7156 30.7333 82.489 29.8667 83.3956 29.2C84.3023 28.5067 85.209 27.9733 86.1156 27.6C87.0223 27.2267 87.7423 26.9733 88.2756 26.84C87.449 26.4933 86.689 26.0933 85.9956 25.64C85.329 25.16 84.7823 24.6 84.3556 23.96C83.9556 23.32 83.7556 22.6 83.7556 21.8C83.7556 20.9467 83.9823 20.2 84.4356 19.56C84.889 18.8933 85.489 18.3467 86.2356 17.92C87.009 17.4933 87.8623 17.1733 88.7956 16.96C89.7556 16.72 90.729 16.6 91.7156 16.6ZM107.436 16.12C109.329 16.12 110.862 16.6133 112.036 17.6C113.209 18.5867 113.796 19.9733 113.796 21.76C113.796 23.12 113.462 24.2667 112.796 25.2C112.156 26.1333 111.222 26.8933 109.996 27.48C108.796 28.0667 107.356 28.5333 105.676 28.88C105.302 29.0133 104.836 29.1733 104.276 29.36C103.716 29.52 103.142 29.68 102.556 29.84C101.969 30 101.396 30.16 100.836 30.32C100.302 30.48 99.8356 30.6133 99.4356 30.72C97.3556 31.1733 95.7556 31.6933 94.6356 32.28C93.5156 32.84 92.9556 33.6133 92.9556 34.6C92.9556 35.2667 93.169 35.84 93.5956 36.32C94.049 36.8 94.609 37.1733 95.2756 37.44C95.9423 37.7067 96.609 37.84 97.2756 37.84C97.4623 37.84 97.6623 37.8267 97.8756 37.8C98.089 37.7467 98.289 37.6933 98.4756 37.64C98.6623 37.56 98.7956 37.4933 98.8756 37.44C98.209 37.2267 97.7023 36.8933 97.3556 36.44C97.0356 35.96 96.8756 35.4133 96.8756 34.8C96.8756 33.9467 97.1823 33.2933 97.7956 32.84C98.409 32.3867 99.169 32.16 100.076 32.16C101.036 32.16 101.782 32.4133 102.316 32.92C102.876 33.4267 103.156 34.08 103.156 34.88C103.156 35.7067 102.902 36.4 102.396 36.96C101.889 37.4933 101.209 37.8933 100.356 38.16C99.5023 38.4 98.5423 38.52 97.4756 38.52C96.4356 38.52 95.449 38.3333 94.5156 37.96C93.609 37.5867 92.8756 37.0267 92.3156 36.28C91.7823 35.5067 91.5156 34.5467 91.5156 33.4C91.5156 31.9867 91.8756 30.8133 92.5956 29.88C93.3156 28.92 94.3423 28.1333 95.6756 27.52C97.0356 26.88 98.6356 26.3867 100.476 26.04C101.036 25.9067 101.649 25.76 102.316 25.6C103.009 25.4133 103.716 25.2267 104.436 25.04C105.156 24.8533 105.822 24.6533 106.436 24.44C108.356 23.96 109.836 23.4267 110.876 22.84C111.942 22.2533 112.476 21.4667 112.476 20.48C112.476 19.76 112.249 19.1333 111.796 18.6C111.369 18.04 110.809 17.6133 110.116 17.32C109.422 17 108.702 16.84 107.956 16.84C107.716 16.84 107.489 16.8533 107.276 16.88C107.089 16.9067 106.929 16.96 106.796 17.04C107.462 17.28 107.956 17.64 108.276 18.12C108.596 18.6 108.756 19.08 108.756 19.56C108.756 20.3867 108.449 21.0267 107.836 21.48C107.222 21.9067 106.462 22.12 105.556 22.12C104.649 22.12 103.902 21.8933 103.316 21.44C102.729 20.96 102.436 20.3067 102.436 19.48C102.436 18.76 102.636 18.16 103.036 17.68C103.462 17.1733 104.049 16.7867 104.796 16.52C105.542 16.2533 106.422 16.12 107.436 16.12ZM144.333 16.12C146.093 16.12 147.533 16.3867 148.653 16.92C149.8 17.4267 150.813 18.0267 151.693 18.72C152.226 19.12 152.626 19.1733 152.893 18.88C153.186 18.56 153.386 17.8267 153.493 16.68H154.413C154.36 17.72 154.32 18.9867 154.293 20.48C154.266 21.9467 154.253 23.9067 154.253 26.36H153.333C153.2 25.1333 153.026 24.0933 152.813 23.24C152.6 22.36 152.306 21.5867 151.933 20.92C151.56 20.2533 151.026 19.6533 150.333 19.12C149.666 18.4533 148.893 17.96 148.013 17.64C147.133 17.32 146.213 17.16 145.253 17.16C143.813 17.16 142.586 17.5467 141.573 18.32C140.56 19.0667 139.733 20.0933 139.093 21.4C138.48 22.7067 138.026 24.1867 137.733 25.84C137.44 27.4667 137.293 29.16 137.293 30.92C137.293 32.7067 137.44 34.4267 137.733 36.08C138.053 37.7067 138.533 39.16 139.173 40.44C139.84 41.72 140.693 42.7333 141.733 43.48C142.773 44.2267 144 44.6 145.413 44.6C146.293 44.6 147.173 44.44 148.053 44.12C148.96 43.7733 149.733 43.28 150.373 42.64C151.413 41.84 152.12 40.8533 152.493 39.68C152.866 38.48 153.146 36.8933 153.333 34.92H154.253C154.253 37.4533 154.266 39.5067 154.293 41.08C154.32 42.6267 154.36 43.9333 154.413 45H153.493C153.386 43.8533 153.2 43.1333 152.933 42.84C152.693 42.5467 152.28 42.5867 151.693 42.96C150.706 43.6533 149.653 44.2667 148.533 44.8C147.44 45.3067 146.026 45.56 144.293 45.56C141.466 45.56 138.986 44.9867 136.853 43.84C134.746 42.6933 133.106 41.04 131.933 38.88C130.76 36.72 130.173 34.12 130.173 31.08C130.173 28.0933 130.773 25.48 131.973 23.24C133.2 21 134.866 19.2533 136.973 18C139.106 16.7467 141.56 16.12 144.333 16.12Z" fill="#4B3B2E"/>
</svg>
